<svg id="Capa_1" data-name="Capa 1" xmlns="http://www.w3.org/2000/svg" viewBox="0 0 512 488.41">
  <defs>
    <style>
      .cls-1 {
        fill: #d6d6d6;
      }
    </style>
  </defs>
  <title>star</title>
  <path class="cls-1" d="M511.27,197.26a15,15,0,0,0-12.11-10.21L340.44,164l-71-143.82A15,15,0,0,0,256,11.8h0a15,15,0,0,0-13.45,8.36L171.56,164,12.84,187.05a15,15,0,0,0-8.31,25.58l114.85,112L92.27,482.67A15,15,0,0,0,114,498.48l142-74.63,142,74.63a15,15,0,0,0,21.77-15.81L392.61,324.59l114.86-112A15,15,0,0,0,511.27,197.26Z" transform="translate(0 -11.8)"/>
</svg>
